<svg id="Layer_1" data-name="Layer 1" xmlns="http://www.w3.org/2000/svg" viewBox="0 0 76.91 88.66"><title>role_flex</title><path d="M52.35,9.37c4.27,5.81,5,7.86,3.08,7.86s-2.74,1.54-2.74,5.13c0,5.81-.34,6-5.13,3.07-2.56-1.71-3.76-1.71-5.47,0-3.24,3.25-4.78,2.39-4.78-2.9,0-3.08-1-5.3-2.39-5.64-1.88-.35-.86-2.74,3.59-8.55C41.75,3.73,45,.48,45.68.82A86.73,86.73,0,0,1,52.35,9.37ZM26,22.87c-.51,1.37,1.2,3.25,3.93,4.44l4.79,2.22L31,32.1c-2.23,1.54-3.94,4.44-3.94,6.66,0,4.79-.51,5-6,1.37-2.56-1.71-4.27-2.05-4.27-.85,0,4.44-3.25,1.19-6.67-6.5-4.44-10.42-4.44-10.08.35-10.94C19.36,20.13,26.88,20.65,26,22.87Zm56.91,0c1.2,1.19-6.49,18.29-8.2,18.29a1.74,1.74,0,0,1-1.54-1.88c0-1.2-1.71-.86-4.27.85-5.47,3.59-6,3.42-6-1.37,0-2.22-1.71-5.12-3.76-6.66l-3.94-2.57L60,27.31c3.08-1.37,4.44-3.07,3.76-4.61-.85-2.05.68-2.4,8.72-1.54C77.81,21.67,82.43,22.53,82.94,22.87ZM30.81,58.42c3.59,1.88,3.59,2-.85,4.27-2.73,1.54-4.1,3.42-3.59,4.79.86,2-.85,2.39-9.06,1.53-5.47-.51-10.25-1.19-10.59-1.53s1.19-4.79,3.41-9.92c3.08-6.83,4.62-8.71,6.16-7.52,1.36,1.2,3.24.86,6-1,3.76-2.74,3.93-2.74,4.44,2.39A9.48,9.48,0,0,0,30.81,58.42ZM73.71,50c1.54-1.19,3.25.86,6.16,7.52,2.22,5.13,3.76,9.57,3.41,9.92s-5.12,1-10.59,1.53c-8.21.86-9.92.52-9.06-1.53.51-1.37-.86-3.25-3.59-4.79l-4.61-2.22,3.76-2C61.75,57.05,63,54.83,63,51.07c0-5.13,0-5.13,4.44-2.22C70.29,50.73,72.35,51.07,73.71,50ZM45,65.42a16.21,16.21,0,0,0,4.79-1.19c2.22-1,2.9-.34,2.9,3.07,0,2.57,1,4.62,2.56,5,2.06.34,1.37,2.22-2.9,8.38a74.79,74.79,0,0,1-6.84,8.54c-.85.34-4.1-3.25-7.52-7.86-4.78-6.67-5.47-8.72-3.42-9.06,1.71-.34,2.74-2.39,2.74-5,0-3.41.68-4.1,3.08-3.07A15.3,15.3,0,0,0,45,65.42Z" transform="translate(-6.54 -0.67)" style="fill:#727070;stroke:#000;stroke-miterlimit:10;stroke-width:0.25px"/></svg>