<svg xmlns="http://www.w3.org/2000/svg" viewBox="0 0 302.36 439.8"><defs><style>.cls-1{fill:#36f;}</style></defs><title>Asset 1</title><g id="Layer_2" data-name="Layer 2"><g id="Layer_2-2" data-name="Layer 2"><path class="cls-1" d="M279.6,283.72s-3.4-18.29-26.37-25.1-31-11.48-19.14-21.69,21.69-13.61,26-8.93,10.63-51,7.23-57.84-55.72-31-76.13-31-97-2.56-118.23,10.2-41.68,19.14-37,40.83S43.14,268,29.1,286.69C29.1,286.69,15.49,302,1,171-3.65,35.77,9.11,56.61,9.11,56.61s33.17,72.72,43.81,64.64,43-4.67,45.08-10.63S148.61-2.51,150.73,0s49.76,99.1,53.59,105.9,32.32,4.68,40.4,10.64,15.74,3.4,19.14-3,31.9-64.65,34-58.27S313.62,211,279.6,283.72Z"/><path class="cls-1" d="M192.84,244.16s21.26,9.79,28.92-3.4,7.65-24.24,13.18-25.52,14.89-23.39,4.26-28.92-17.87-12.33-23.4-6.38S195,223.75,192.84,244.16Z"/><path class="cls-1" d="M157.54,238.63s24.67,5.53,28.92-1.7,26.79-64.64,17-65.92-28.92-3.4-32.32,3S149.46,243.31,157.54,238.63Z"/><path class="cls-1" d="M123.09,205.46c3.4.43,27.64,8.51,31.9,2.13s6.8-42.11-.43-42.53-18.71-5.1-25.09,2.55S119.69,205,123.09,205.46Z"/><path class="cls-1" d="M85.66,171.44s20.42-4.25,24.25,2.12,4.25,29.35,0,30.63-34.45-.85-33.6-6.38S75.88,173.56,85.66,171.44Z"/><path class="cls-1" d="M163.49,439.8S232,393,230.26,389.19,215,360.27,215,360.27,169,386.21,165.62,388.34s-52.74-30.2-54.86-27.65-20.84,23-15.74,26.8S160.09,439.37,163.49,439.8Z"/><path class="cls-1" d="M164.34,375.58S219.21,345,219.21,342s.85-17.44.85-17.44,20-17,20.84-23.39,3.82-34.45-4.26-34.87S160.52,249.69,158.82,254s-4.68,5.1-3,8.08S175,286.27,175,286.27L154.14,262s-54.87-2.13-62.52-6.81S81,239.91,81,239.91s4.67,12.33,12.76,14.89,33.17,1.27,40-4.26,23.39-28.92,19.14-32.32S72.06,202.06,58,208.44c-7.23,7.23-12.33,60.39,20.41,107.17,14.89,15.31,23.82,14.46,25.1,20s-.43,10.63,8.5,16.59S152,378.13,164.34,375.58Z"/></g></g></svg>