<svg xmlns="http://www.w3.org/2000/svg" viewBox="0 0 436.85 472.5"><defs><style>.cls-1{fill:#36f;}</style></defs><title>Asset 7</title><g id="Layer_2" data-name="Layer 2"><g id="Layer_5" data-name="Layer 5"><polygon class="cls-1" points="180.18 143.78 221.35 125.48 259.91 144.43 259.91 89.53 291.93 89.53 220.7 0 153.39 90.19 180.18 90.19 180.18 143.78"/><polygon class="cls-1" points="180.18 328.73 221.35 347.02 259.91 328.07 259.91 382.97 291.93 382.97 220.7 472.5 153.39 382.31 180.18 382.31 180.18 328.73"/><polygon class="cls-1" points="123.98 224.16 124.63 182.33 166.46 158.15 117.44 131.36 129.86 106.53 9.61 109.14 57.97 223.51 80.84 199.33 123.98 224.16"/><polygon class="cls-1" points="156.95 316.15 121.13 294.54 121.29 246.23 73.47 275.1 58.25 251.87 0 357.1 123.17 372.86 113.78 340.93 156.95 316.15"/><polygon class="cls-1" points="317.42 224.16 316.77 182.33 274.94 158.15 323.96 131.36 311.54 106.53 431.79 109.14 383.43 223.51 360.55 199.33 317.42 224.16"/><polygon class="cls-1" points="281.26 313.99 317.74 293.51 319.1 245.22 365.99 275.58 381.93 252.84 436.85 359.85 313.25 371.73 323.63 340.11 281.26 313.99"/></g></g></svg>