<svg xmlns="http://www.w3.org/2000/svg" viewBox="0 0 186.34 395"><defs><style>.cls-1{fill:#36f;}</style></defs><title>Asset 6</title><g id="Layer_2" data-name="Layer 2"><g id="Layer_5" data-name="Layer 5"><path class="cls-1" d="M88.73,395V208.66l-36-33.52v99.09s-17.26,25.63-26.62,31.55S14.3,326,88.73,395Z"/><path class="cls-1" d="M99.31,395V208.66l36-33.52v99.09s17.26,25.63,26.62,31.55S173.75,326,99.31,395Z"/><path class="cls-1" d="M88.24,192.89H99.09l87.25-83.81V58.8L183,56.29h-2.13L177,58.8s2,14.2,0,25.14-39.43,49.3-52.25,53.74a111.76,111.76,0,0,1-14.79,0V56.34A32,32,0,0,0,123.14,38a28.66,28.66,0,0,0,.94-9.17s-2-24.8-24.33-28.56a53.66,53.66,0,0,0-16,.7S66.37,4.89,63.1,26.76C61.42,38,66.55,49.93,75.92,55.35v81.34H57.18S12,97.41,10.35,83.94A221.62,221.62,0,0,1,8.87,57.81L5.3,56.16H3.71L0,57.81v51.77Z"/></g></g></svg>