<svg xmlns="http://www.w3.org/2000/svg" viewBox="0 0 392.56 409.91"><defs><style>.cls-1{fill:#36f;}</style></defs><title>Asset 3</title><g id="Layer_2" data-name="Layer 2"><g id="Layer_4" data-name="Layer 4"><path class="cls-1" d="M0,34.15s36.52,72.12,37.43,82.17-4.56,47.47,22.82,95.85c9.13,14.61,11.87,16.44,5.48,38.35S61.17,267.86,72.12,267s32-10.95,37.43-6.39,54.78,29.21,59.34,21.91c0-18.26,5.48-35.6-2.73-34.69s-69.39-19.17-91.3-74.86c-2.74-35.61-2.74-76.69-5.48-76.69S0,34.15,0,34.15Z"/><path class="cls-1" d="M392.56,34.15s-36.51,72.12-37.43,82.17,4.57,47.47-22.82,95.85c-9.13,14.61-11.87,16.44-5.48,38.35s4.57,17.34-6.39,16.43S288.49,256,283,260.56s-54.77,29.21-59.34,21.91c0-18.26-5.48-35.6,2.74-34.69s69.38-19.17,91.29-74.86c2.74-35.61,2.74-76.69,5.48-76.69S392.56,34.15,392.56,34.15Z"/><path class="cls-1" d="M141.57,314.05s45.65,23.74,45.65,11V183.5l-37.44-33.78V117.77s13.7,13.69,18.26,12.78,2.74-4.56.92-7.3-32.87-26.48-32.87-26.48V59.34s29.21,28.3,29.21,21.91-40.16-42-40.16-42V0l69.38,68.47h6.39L267.55,0V39.26s-43.82,38.34-42,42,31.95-20.08,31.95-20.08v35.6s-37.43,31-32.86,32.87,23.73-11,23.73-11v32.87l-39.25,35.6s-4.21,135.79-1.53,139.26,30.74-1.4,46.26-14.18c-12.78,25.56-54.78,97.68-54.78,97.68Z"/></g></g></svg>