<svg xmlns="http://www.w3.org/2000/svg" viewBox="0 0 388.51 375.03"><defs><style>.cls-1{fill:#36f;}</style></defs><title>Asset 4</title><g id="Layer_2" data-name="Layer 2"><g id="Layer_7" data-name="Layer 7"><path class="cls-1" d="M187.44,0V86.28S121,92.11,102.33,159.73c-10.64,10.94-21.31,19.91-21.59,21l0,5.19,21,19.83s8.16,61.79,89.77,75.2c43.14-9.91,70.54-5.25,95-77l21-16.91v-7l-23.32-21s4.67-33-58.32-69.39c-7.75-5-22-4.68-22-4.68L203.51.54s39.68,23.28,38.79,27.15-13.13,6-11.94,10.75,0,23,0,23S294.82,74.54,319,153.32c9.84.9,11,0,11,0l-6-21.48s17.82,14.39,64.45,51c-44.76,47.15-60.6,54.72-60.6,54.72s4.14-28.89,2.72-28.76h-6.87s-17.6,75.8-94.29,98.18c-.3,16.11,0,20,0,20h15.22s-4.48,26.26-48.34,48h-7.76S158.75,362.5,142,326.69c17-.3,20,0,20,0v-19.1s-74.6-19.69-93.7-98.17H54.91l10.44,29.84L0,185.55l65.05-58.79s-10.74,25.07-8.06,29c8.36-.3,14.33,0,14.33,0s-3.58-57.29,86.53-94V36.65s-15.22-5.37-11.93-9.25S187.44,0,187.44,0Z"/><circle class="cls-1" cx="193.06" cy="180.94" r="82.87"/></g></g></svg>