<svg xmlns="http://www.w3.org/2000/svg" viewBox="0 0 288.09 373.86"><defs><style>.cls-1{fill:#36f;}</style></defs><title>Asset 5</title><g id="Layer_2" data-name="Layer 2"><g id="Layer_6" data-name="Layer 6"><path class="cls-1" d="M286.68,107.73,266.24,95l-1.27-60-61.75-1.28L145.31,0S89.11,31.94,84,34.49s-63,0-63,0V96.66S17.15,97.94.11,109C-4.57,296.79,136,373.86,136,373.86H150C311.8,251.23,286.68,107.73,286.68,107.73ZM150.85,348.31s-2.56,0-15.33-.43c-120.08-92.82-115-226.53-115-226.53l16.61-13.2,1.7-55.78,49.4-1.7,52.8-25.12h4.68L197.69,52l53.22.42V107.3l15.33,11.07C274.33,244.84,150.85,348.31,150.85,348.31Z"/><polygon class="cls-1" points="52.06 65.03 52.06 116.55 92.94 158.7 92.94 283.46 141.91 329.02 146.17 329.02 193.43 283.89 193.43 157.85 234.73 116.97 234.73 64.6 188.32 64.17 147.02 42.88 140.21 42.88 98.9 64.17 52.06 65.03"/><path class="cls-1" d="M234.73,122.08h15.76s10.22,61.32-46,144.78c-1.7-75-.85-113.69-.85-113.69Z"/><path class="cls-1" d="M51.3,122.08H35.54s-10.21,61.32,46,144.78c1.7-75,.85-113.69.85-113.69Z"/></g></g></svg>